<svg version="1.1" id="Layer_1" xmlns="http://www.w3.org/2000/svg" xmlns:xlink="http://www.w3.org/1999/xlink" x="0px" y="0px" viewBox="0 0 401.7 46.8" enable-background="new 0 0 401.7 46.8" xml:space="preserve">
	<script xmlns="" />
	<path fill="#1F00CC" d="M141.1,0.9c5.1,0,8.2,2.2,11.2,5.8c1.1-1,2.2-1.9,3.5-2.7c3.1-2,6.6-3,10.1-3l47,0l-3.1,4.9l59-0.1l5.4,9.3  l4.8-9.2l39.2,0l9.7,7.6V5.9h73.8v35.3h-68.1l-9.9-7.7v7.7l-55.2,0v0l-3.7-6.1c-3,3.4-8.4,6.1-17.3,6.1l-49,0  c-1.6,1.6-3.3,1.8-5.3,1.7l-0.5,3.2h-18.9l0.4-2.7c-0.2,0.1-0.4,0.3-0.6,0.4c-4.4,2.7-9.4,3.6-14.1,2.5c-3.6-0.8-6.8-2.8-9.2-5.4  c-3.2,3.1-7.5,5.2-11.6,5.2l-92.9,0.1l-1.5-8.5l-3.8,8.5H25c-4.9,0.8-9.8,0.1-14.2-2.1C4.8,40.9,0.8,35.3,0.2,29  c-1.1-10.5,3-18.9,11.6-24.2c8.3-5.1,17.1-6.2,26.2-3l1.7,0.6l0.6-1.4h17.4L59,8.8l2.6-7.9L141.1,0.9"/>
	<path fill="#FFFFFF" d="M246.4,29.6h-6.2V17h8.8c4.7,0,7,1.9,7,6C256,28,253.5,29.6,246.4,29.6 M289.7,11.7h-7.2l-0.2,0.4L274.2,27  l-8.7-14.9l-0.2-0.3h-7.7l0.6,1l1.5,2.4c-2.4-2.3-6-3.5-10.7-3.5h-15.5v19.4l-11.5-19l-0.2-0.3h-5.9l-0.2,0.3l-13.1,22l-0.6,1h5.1v0  h11.4v-5.2h-6.7l6.7-12.1l9.5,16.9l0.2,0.3h7.6v0h11.7c10.1,0,15.3-4,15.3-11.8c0-1.4-0.2-2.6-0.5-3.7l9.2,15.2l0.2,0.3h4.5l0.2-0.3  l12.7-22L289.7,11.7"/>
	<polyline fill="#FFFFFF" points="334.4,11.7 333.7,11.7 333.7,25.6 316.2,11.9 316,11.7 311.4,11.7 311.4,31.1 299.9,12.1   299.7,11.7 293.8,11.7 293.6,12.1 280.5,34 279.9,35.1 286.9,35.1 286.9,35.1 296.5,35.1 296.5,29.9 289.8,29.9 296.5,17.8   306,34.7 306.2,35.1 313.8,35.1 313.8,35.1 317.6,35.1 317.6,21 335.1,34.9 335.3,35.1 339.9,35.1 339.9,11.7 334.4,11.7 "/>
	<path fill="#FFFFFF" d="M362.1,11.7h-13.7c-4.8,0-6.4,1.5-6.4,5.9v11.6c0,4.4,1.6,5.9,6.4,5.9h13.7c4.8,0,6.4-1.5,6.4-5.9v-3.3  l-0.7,0l-5.4,0l-0.7,0v3.6h-13.1V17.2h13.1v3.2h0.7l6.1,0v-2.8C368.5,13.1,366.9,11.7,362.1,11.7"/>
	<polyline fill="#FFFFFF" points="395.2,29.6 377.4,29.6 377.4,25.5 388.1,25.5 388.1,20.4 377.4,20.4 377.4,17 395.6,17 395.6,11.7   370.7,11.7 370.7,35.1 395.9,35.1 395.9,29.6 395.2,29.6 "/>
	<path fill="#FFFFFF" d="M43.8,23.6l2.9-6.5l1.3,6.5H43.8 M83.7,6.7L75.9,25L72.6,6.7h-6.8L57,33.7L52.5,6.7h-8.4l-12.8,29l1.9-12.1  H20.5l-1,6.2h5.3l-0.6,3.3C21.2,34.4,16,34,13.8,30c-1.4-2.5-2.7-8.1,3.2-13.2c4.8-4.2,13.1-4.9,17.9-2.7c0,0,0.6-3.5,1.1-6.8  c-9.2-3.2-16.4-0.5-21.2,2.4c-6.5,4-9.6,10.2-8.8,18.6c1,9.7,13.5,15.8,24.2,9.7c0.1-0.1,0.2-0.1,0.2-0.1l-1,2.3h7.2l4.5-10H49  l1.7,10h11.6l5.9-18.6l3.8,18.6h4.6l8.9-20.6l0.9,20.6h6.8L91.9,6.7H83.7"/>
	<polyline fill="#FFFFFF" points="93.9,40.1 113,40.1 114.1,32.9 102.1,32.9 103.1,27 113.5,27 114.6,19.8 104.1,19.8 105,13.9   117,13.9 118.1,6.7 99.2,6.7 93.9,40.1 "/>
	<polyline fill="#FFFFFF" points="187.1,17.6 182.9,6.7 175,6.7 183.1,24.3 180.6,40.1 187.5,40.1 189.6,26.1 201.9,6.7 193.9,6.7   187.1,17.6 "/>
	<path fill="#FFFFFF" d="M171.1,26.6c-1.8,5.5-6.3,8.7-9.9,7.1c-3.6-1.6-5-7.4-3.2-13c1.8-5.5,6.3-8.7,9.9-7.1  C171.6,15.3,173,21.1,171.1,26.6 M168.5,7c-7.6-1.7-15.5,4.3-17.6,13.5c-2.1,9.2,2.3,18.1,9.9,19.9c7.6,1.8,15.5-4.3,17.6-13.5  C180.5,17.7,176,8.8,168.5,7"/>
	<path fill="#FFFFFF" d="M138.1,20.1c-3.8,0-4.8,0-4.8,0l1.1-6.2c0,0,0.1,0,4.4,0C143.7,13.9,142.8,20.1,138.1,20.1 M137.3,33.6  c-3.8,0-6,0-6,0l1.1-6.6c0,0,1.4,0,5.7,0C143.5,26.9,143.4,33.6,137.3,33.6 M141.3,6.9c-3.7-0.1-12.8,0-12.8,0h0.1L123.3,40  c0,0,10.9,0,15.4,0c6.3,0,15.6-9.3,7.2-17C154.5,14,145.9,7,141.3,6.9"/>
	<path fill="#FFFFFF" d="M193.3,36.9v-1.3h1.1c0.5,0,0.9,0.1,0.9,0.6c0,0.8-0.8,0.7-1.3,0.7H193.3 M194.6,37.3c0.7,0,1.2-0.3,1.2-1.1  c0-0.3-0.2-0.7-0.4-0.8c-0.3-0.2-0.6-0.2-0.9-0.2h-1.7v3.9h0.5v-1.7h0.8l1.1,1.7h0.6L194.6,37.3 M194.2,40.6c1.9,0,3.5-1.5,3.5-3.5  c0-1.9-1.5-3.4-3.5-3.4c-1.9,0-3.5,1.5-3.5,3.4C190.7,39.1,192.2,40.6,194.2,40.6 M194.2,40c-1.6,0-2.9-1.2-2.9-2.9  c0-1.6,1.3-2.9,2.9-2.9s2.9,1.3,2.9,2.9C197,38.8,195.8,40,194.2,40"/>
</svg>